<svg id="svg" version="1.1" xmlns="http://www.w3.org/2000/svg" xmlns:xlink="http://www.w3.org/1999/xlink" width="400" height="141.7624521072797" viewBox="0, 0, 400,141.7624521072797"><g id="svgg"><path id="path0" d="M3.369 51.141 C 3.241 51.222,3.203 51.399,3.273 51.582 C 3.358 51.805,3.332 51.852,3.177 51.756 C 3.019 51.659,2.993 51.717,3.077 51.979 C 3.139 52.175,3.116 52.333,3.027 52.333 C 2.938 52.333,2.907 52.495,2.959 52.693 C 3.027 52.954,2.995 53.017,2.842 52.922 C 2.686 52.826,2.661 52.885,2.743 53.146 C 2.813 53.365,2.784 53.500,2.667 53.500 C 2.553 53.500,2.520 53.634,2.583 53.833 C 2.647 54.033,2.613 54.167,2.500 54.167 C 2.387 54.167,2.353 54.300,2.417 54.500 C 2.489 54.729,2.447 54.833,2.279 54.833 C 2.145 54.833,1.994 54.942,1.943 55.075 C 1.878 55.243,1.930 55.286,2.115 55.215 C 2.295 55.146,2.352 55.188,2.294 55.348 C 2.247 55.478,2.111 55.560,1.993 55.532 C 1.824 55.492,1.820 55.533,1.975 55.719 C 2.083 55.851,2.121 56.093,2.057 56.258 C 1.948 56.542,1.935 56.541,1.816 56.238 C 1.710 55.968,1.688 55.962,1.678 56.200 C 1.672 56.356,1.798 56.561,1.958 56.655 C 2.185 56.789,2.202 56.859,2.036 56.969 C 1.918 57.046,1.867 57.228,1.922 57.371 C 1.978 57.515,1.942 57.683,1.844 57.743 C 1.746 57.804,1.711 58.037,1.767 58.260 C 1.834 58.524,1.798 58.667,1.667 58.667 C 1.534 58.667,1.500 58.810,1.568 59.083 C 1.634 59.343,1.602 59.500,1.485 59.500 C 1.366 59.500,1.337 59.659,1.406 59.933 C 1.487 60.258,1.424 60.444,1.148 60.683 C 0.850 60.941,0.833 61.000,1.058 61.000 C 1.439 61.000,1.403 61.484,0.997 61.836 C 0.713 62.082,0.700 62.144,0.913 62.226 C 1.230 62.347,1.249 63.000,0.936 63.000 C 0.809 63.000,0.666 63.150,0.618 63.333 C 0.562 63.550,0.613 63.667,0.766 63.667 C 1.069 63.667,1.076 64.435,0.773 64.551 C 0.488 64.661,0.291 65.336,0.559 65.286 C 0.814 65.238,0.914 66.514,0.666 66.667 C 0.395 66.835,0.149 67.998,0.394 67.952 C 0.528 67.927,0.597 68.757,0.629 70.792 C 0.667 73.184,0.635 73.667,0.438 73.667 C 0.167 73.667,0.333 74.733,0.654 75.054 C 0.925 75.325,0.882 76.333,0.599 76.333 C 0.302 76.333,0.449 76.991,0.773 77.115 C 1.083 77.234,1.068 78.000,0.755 78.000 C 0.467 78.000,0.602 78.509,0.946 78.717 C 1.244 78.897,1.225 79.321,0.913 79.441 C 0.700 79.523,0.713 79.585,0.997 79.830 C 1.403 80.183,1.439 80.667,1.058 80.667 C 0.831 80.667,0.846 80.722,1.141 80.978 C 1.555 81.337,1.582 81.474,1.290 81.732 C 1.174 81.833,1.108 81.901,1.143 81.883 C 1.332 81.782,1.634 82.341,1.554 82.645 C 1.497 82.861,1.539 83.000,1.660 83.000 C 1.795 83.000,1.824 83.162,1.750 83.500 C 1.680 83.819,1.707 84.000,1.823 84.000 C 1.935 84.000,1.966 84.162,1.902 84.417 C 1.834 84.685,1.867 84.833,1.994 84.833 C 2.117 84.833,2.093 84.931,1.929 85.095 C 1.785 85.239,1.668 85.446,1.669 85.554 C 1.671 85.682,1.721 85.672,1.815 85.524 C 1.925 85.350,1.987 85.345,2.084 85.501 C 2.153 85.613,2.129 85.754,2.031 85.814 C 1.932 85.875,1.879 86.073,1.913 86.254 C 1.947 86.435,1.980 86.640,1.987 86.708 C 1.994 86.777,2.112 86.833,2.250 86.833 C 2.387 86.833,2.500 86.908,2.500 87.000 C 2.500 87.092,2.385 87.167,2.243 87.167 C 2.032 87.167,2.025 87.208,2.202 87.399 C 2.320 87.527,2.483 87.592,2.563 87.543 C 2.644 87.494,2.672 87.558,2.626 87.685 C 2.580 87.812,2.452 87.896,2.342 87.871 C 2.232 87.846,2.189 87.902,2.247 87.996 C 2.306 88.090,2.469 88.167,2.611 88.167 C 2.772 88.167,2.833 88.261,2.773 88.417 C 2.720 88.554,2.755 88.667,2.850 88.667 C 2.947 88.667,2.976 88.813,2.917 89.000 C 2.853 89.200,2.887 89.333,3.000 89.333 C 3.117 89.333,3.146 89.468,3.077 89.688 C 2.996 89.942,3.021 90.006,3.167 89.917 C 3.314 89.826,3.336 89.894,3.250 90.167 C 3.169 90.422,3.190 90.505,3.315 90.428 C 3.417 90.365,3.500 90.393,3.500 90.490 C 3.500 90.842,62.627 90.727,62.730 90.375 C 63.279 88.513,64.178 82.893,64.603 78.667 C 65.419 70.568,64.528 58.150,62.663 51.625 L 62.484 51.000 33.034 51.003 C 16.836 51.004,3.487 51.066,3.369 51.141 M290.833 91.887 C 290.833 126.660,290.860 130.812,291.087 130.726 C 291.226 130.672,293.343 128.218,295.791 125.273 C 303.371 116.149,313.857 103.539,322.903 92.667 C 341.851 69.893,344.692 66.461,344.773 66.250 C 344.873 65.989,342.572 64.724,338.917 63.032 C 325.090 56.632,310.864 53.345,295.708 53.047 L 290.833 52.952 290.833 91.887 M143.778 75.944 C 143.021 76.701,144.526 88.631,146.003 93.583 C 146.277 94.500,146.619 95.662,146.764 96.167 C 148.900 103.607,155.156 114.564,160.181 119.668 C 160.723 120.219,161.167 120.731,161.167 120.808 C 161.167 121.074,165.958 125.596,167.930 127.190 C 177.172 134.666,187.357 139.240,199.397 141.324 C 201.042 141.609,202.091 141.667,205.605 141.667 L 209.834 141.667 209.792 108.792 L 209.750 75.917 176.820 75.875 C 158.708 75.851,143.840 75.883,143.778 75.944 M122.740 120.542 L 122.250 121.083 122.792 120.594 C 123.090 120.325,123.333 120.081,123.333 120.052 C 123.333 119.923,123.196 120.037,122.740 120.542 M121.406 121.875 L 120.917 122.417 121.458 121.927 C 121.756 121.658,122.000 121.414,122.000 121.385 C 122.000 121.257,121.862 121.370,121.406 121.875 " stroke="none" fill="#241c24" fill-rule="evenodd"></path><path id="path1" d="M346.275 66.411 C 346.214 66.571,346.239 66.642,346.335 66.582 C 346.426 66.526,346.501 66.579,346.503 66.698 C 346.505 66.871,346.536 66.869,346.650 66.688 C 346.767 66.504,346.829 66.520,346.975 66.772 C 347.075 66.943,347.159 66.999,347.162 66.895 C 347.164 66.792,347.054 66.614,346.917 66.500 C 346.779 66.386,346.666 66.358,346.664 66.438 C 346.663 66.518,346.598 66.483,346.521 66.361 C 346.408 66.183,346.359 66.193,346.275 66.411 M347.333 67.196 C 347.333 67.265,347.479 67.399,347.657 67.495 C 347.997 67.677,348.273 67.474,348.090 67.177 C 347.977 66.995,347.333 67.011,347.333 67.196 M350.245 68.676 C 350.076 68.948,350.512 69.352,350.857 69.243 C 351.069 69.175,351.167 69.227,351.167 69.405 C 351.167 69.549,351.284 69.667,351.427 69.667 C 351.569 69.667,351.640 69.742,351.583 69.833 C 351.527 69.925,351.560 70.000,351.657 70.000 C 351.754 70.000,351.833 69.887,351.833 69.750 C 351.833 69.612,351.721 69.500,351.583 69.500 C 351.446 69.500,351.333 69.439,351.333 69.365 C 351.333 69.113,350.356 68.495,350.245 68.676 M352.071 70.004 C 352.071 70.211,352.155 70.310,352.286 70.259 C 352.404 70.214,352.500 70.279,352.500 70.404 C 352.500 70.674,352.956 70.880,353.207 70.725 C 353.305 70.664,353.338 70.691,353.281 70.784 C 353.165 70.972,353.879 71.578,355.500 72.667 C 356.671 73.454,359.309 75.402,360.917 76.666 C 361.467 77.098,362.021 77.415,362.148 77.371 C 362.277 77.326,362.333 77.365,362.275 77.459 C 362.127 77.699,362.551 78.008,362.810 77.848 C 362.981 77.742,362.972 77.668,362.768 77.483 C 362.218 76.984,362.008 76.833,361.864 76.833 C 361.781 76.833,361.576 76.650,361.408 76.427 C 361.240 76.203,361.042 76.057,360.968 76.103 C 360.894 76.149,360.833 76.102,360.833 76.000 C 360.833 75.898,360.758 75.860,360.667 75.917 C 360.575 75.973,360.500 75.903,360.500 75.760 C 360.500 75.617,360.439 75.500,360.365 75.500 C 360.290 75.500,360.065 75.347,359.865 75.160 C 359.664 74.973,359.500 74.860,359.500 74.909 C 359.500 74.993,358.886 74.505,358.394 74.030 C 358.269 73.909,358.167 73.853,358.167 73.906 C 358.167 73.959,357.931 73.777,357.642 73.501 C 357.353 73.226,357.053 73.000,356.975 73.000 C 356.897 73.000,356.689 72.869,356.512 72.708 C 355.900 72.153,355.667 71.987,355.667 72.109 C 355.667 72.176,355.557 72.085,355.422 71.907 C 355.270 71.707,355.175 71.667,355.172 71.802 C 355.169 71.922,354.942 71.774,354.667 71.473 C 354.392 71.172,354.167 70.987,354.167 71.061 C 354.167 71.135,353.931 70.998,353.643 70.756 C 353.333 70.495,353.013 70.357,352.857 70.417 C 352.712 70.472,352.648 70.463,352.714 70.397 C 352.832 70.279,352.382 69.667,352.177 69.667 C 352.119 69.667,352.071 69.819,352.071 70.004 M216.958 75.458 L 223.667 75.504 223.667 108.585 L 223.667 141.667 247.083 141.667 L 270.500 141.667 270.500 108.762 C 270.500 79.071,270.474 75.832,270.238 75.595 C 270.002 75.359,267.073 75.337,240.113 75.373 C 223.688 75.395,213.269 75.433,216.958 75.458 M362.950 78.074 C 362.668 78.356,359.917 81.656,350.717 92.750 C 347.980 96.050,343.159 101.862,340.003 105.667 C 331.982 115.336,327.554 120.674,322.921 126.263 C 320.724 128.914,317.068 133.318,314.796 136.050 C 312.510 138.800,310.667 141.162,310.667 141.342 C 310.667 141.663,311.154 141.667,355.333 141.667 L 400.000 141.667 400.000 140.352 C 400.000 139.469,399.858 138.496,399.568 137.393 C 399.330 136.489,399.099 135.535,399.055 135.273 C 399.010 135.010,398.835 134.359,398.664 133.826 C 398.494 133.293,398.265 132.402,398.156 131.845 C 398.046 131.289,397.891 130.833,397.812 130.833 C 397.732 130.833,397.667 130.699,397.667 130.535 C 397.667 130.009,397.158 128.264,396.971 128.149 C 396.872 128.088,396.839 127.959,396.898 127.863 C 396.957 127.768,396.928 127.642,396.833 127.583 C 396.739 127.525,396.704 127.407,396.757 127.322 C 396.810 127.236,396.780 127.167,396.690 127.167 C 396.550 127.167,396.188 126.010,396.130 125.375 C 396.120 125.260,396.051 125.167,395.977 125.167 C 395.904 125.167,395.884 125.062,395.933 124.934 C 395.982 124.805,395.943 124.651,395.845 124.590 C 395.747 124.530,395.667 124.365,395.667 124.224 C 395.667 124.083,395.547 123.693,395.400 123.359 C 394.770 121.924,394.000 119.907,394.000 119.694 C 394.000 119.602,393.927 119.503,393.838 119.472 C 393.749 119.442,393.652 119.267,393.623 119.083 C 393.570 118.750,392.867 117.144,392.409 116.308 C 392.276 116.064,392.167 115.746,392.167 115.599 C 392.167 115.453,392.087 115.333,391.990 115.333 C 391.893 115.333,391.860 115.258,391.917 115.167 C 391.973 115.075,391.949 115.000,391.863 115.000 C 391.714 115.000,391.294 114.160,391.304 113.882 C 391.306 113.809,391.065 113.300,390.767 112.750 C 390.469 112.200,390.150 111.600,390.058 111.417 C 388.358 108.028,387.280 106.121,387.014 106.033 C 386.914 105.999,386.868 105.912,386.913 105.839 C 386.958 105.766,386.809 105.431,386.581 105.096 C 386.353 104.760,386.167 104.432,386.167 104.366 C 386.167 104.300,385.960 104.024,385.708 103.752 C 385.456 103.480,385.287 103.251,385.333 103.241 C 385.484 103.212,384.150 101.167,383.980 101.167 C 383.888 101.167,383.851 101.106,383.897 101.032 C 383.943 100.957,383.760 100.639,383.491 100.323 C 383.221 100.008,383.001 99.656,383.000 99.542 C 383.000 99.427,382.925 99.333,382.833 99.333 C 382.742 99.333,382.667 99.239,382.667 99.123 C 382.667 99.008,382.514 98.818,382.327 98.701 C 382.140 98.585,382.032 98.417,382.087 98.328 C 382.142 98.239,382.124 98.167,382.048 98.167 C 381.972 98.167,381.768 97.904,381.595 97.583 C 381.422 97.263,381.218 97.000,381.140 97.000 C 381.063 97.000,381.000 96.891,381.000 96.758 C 381.000 96.625,380.906 96.457,380.792 96.383 C 380.677 96.310,380.399 95.987,380.174 95.667 C 379.578 94.817,379.468 94.684,378.921 94.150 C 378.649 93.884,378.485 93.667,378.558 93.667 C 378.631 93.667,378.591 93.562,378.470 93.434 C 378.349 93.305,378.025 92.918,377.750 92.573 C 377.475 92.228,377.044 91.731,376.792 91.467 C 376.540 91.204,376.333 90.924,376.333 90.845 C 376.333 90.766,376.068 90.468,375.744 90.184 C 375.420 89.899,375.210 89.667,375.277 89.667 C 375.344 89.667,375.009 89.285,374.533 88.818 C 374.056 88.352,373.667 87.927,373.667 87.874 C 373.667 87.821,372.860 86.991,371.875 86.028 C 370.890 85.066,370.102 84.216,370.125 84.139 C 370.148 84.063,370.054 84.000,369.917 84.000 C 369.779 84.000,369.667 83.897,369.667 83.770 C 369.667 83.644,369.535 83.438,369.375 83.312 C 369.105 83.100,369.102 83.107,369.333 83.413 C 369.471 83.594,368.951 83.089,368.178 82.291 C 367.405 81.492,366.745 80.866,366.712 80.899 C 366.680 80.932,366.281 80.585,365.826 80.128 C 365.372 79.671,365.000 79.345,365.000 79.404 C 365.000 79.463,364.765 79.244,364.478 78.917 C 364.191 78.590,363.919 78.359,363.874 78.404 C 363.829 78.449,363.666 78.330,363.511 78.139 C 363.248 77.814,363.213 77.810,362.950 78.074 M7.436 101.593 C 7.279 102.003,7.323 102.118,7.513 101.792 C 7.742 101.400,61.233 101.330,61.383 101.722 C 61.822 102.866,55.669 113.859,51.525 119.333 C 47.872 124.159,39.303 132.961,37.719 133.514 C 37.610 133.552,38.510 134.061,39.719 134.645 C 40.928 135.228,42.129 135.810,42.389 135.936 C 42.648 136.063,42.924 136.167,43.001 136.167 C 43.079 136.167,43.712 136.430,44.409 136.752 C 45.106 137.074,45.805 137.362,45.963 137.393 C 46.278 137.455,46.516 137.539,47.731 138.015 C 48.178 138.190,48.623 138.333,48.718 138.333 C 48.814 138.333,49.513 138.562,50.272 138.841 C 51.570 139.320,52.073 139.473,52.667 139.571 C 52.804 139.594,53.217 139.698,53.583 139.803 C 54.584 140.087,57.044 140.665,57.685 140.765 C 57.996 140.814,58.438 140.893,58.667 140.940 C 59.158 141.040,59.791 141.150,60.541 141.265 C 60.839 141.311,61.346 141.395,61.667 141.453 C 62.480 141.598,80.562 141.597,81.583 141.451 C 82.042 141.386,82.529 141.307,82.667 141.277 C 82.804 141.246,83.292 141.164,83.750 141.094 C 84.760 140.940,88.318 140.184,88.667 140.050 C 88.804 139.997,89.029 139.936,89.167 139.914 C 90.066 139.771,90.597 139.627,90.778 139.477 C 90.892 139.382,91.048 139.343,91.125 139.391 C 91.202 139.438,91.580 139.336,91.966 139.163 C 92.351 138.991,92.667 138.893,92.667 138.945 C 92.667 138.998,92.760 138.968,92.875 138.880 C 92.990 138.791,93.458 138.620,93.917 138.500 C 94.375 138.380,94.825 138.230,94.917 138.167 C 95.008 138.103,95.458 137.953,95.917 137.833 C 96.375 137.713,96.825 137.561,96.917 137.496 C 97.008 137.430,97.372 137.284,97.724 137.170 C 98.077 137.056,98.565 136.860,98.808 136.733 C 99.051 136.606,99.344 136.502,99.458 136.501 C 99.573 136.500,99.667 136.425,99.667 136.333 C 99.667 136.242,99.811 136.167,99.986 136.167 C 100.162 136.167,100.519 136.063,100.778 135.936 C 101.038 135.809,102.188 135.247,103.333 134.687 C 104.479 134.127,105.717 133.481,106.083 133.253 C 106.450 133.024,106.924 132.761,107.138 132.668 C 107.351 132.575,107.852 132.274,108.251 131.999 C 108.650 131.725,109.029 131.500,109.093 131.500 C 109.158 131.500,109.557 131.252,109.980 130.949 C 110.404 130.646,110.881 130.348,111.042 130.287 C 111.202 130.227,111.333 130.095,111.333 129.995 C 111.333 129.895,111.399 129.854,111.479 129.904 C 111.559 129.953,111.859 129.769,112.145 129.495 C 112.432 129.221,112.668 129.054,112.669 129.124 C 112.671 129.193,112.727 129.167,112.794 129.067 C 112.862 128.966,113.235 128.684,113.625 128.439 C 114.015 128.195,114.333 127.909,114.333 127.803 C 114.333 127.698,114.379 127.657,114.434 127.712 C 114.542 127.820,114.722 127.691,115.505 126.946 C 115.777 126.686,116.000 126.521,116.000 126.579 C 116.000 126.637,116.187 126.482,116.417 126.234 C 116.646 125.987,116.833 125.845,116.833 125.918 C 116.833 125.991,117.096 125.781,117.417 125.450 C 117.737 125.120,118.000 124.883,118.000 124.924 C 118.000 124.965,118.204 124.830,118.453 124.624 C 119.109 124.081,124.833 118.396,124.833 118.286 C 124.833 118.235,125.115 117.902,125.458 117.545 C 126.273 116.702,126.855 116.000,126.740 116.000 C 126.690 116.000,126.852 115.813,127.099 115.583 C 127.346 115.354,127.508 115.167,127.457 115.167 C 127.407 115.167,127.588 114.930,127.858 114.640 C 128.393 114.067,128.441 113.490,128.000 112.937 C 127.533 112.352,125.295 110.082,125.433 110.333 C 125.508 110.471,125.267 110.283,124.896 109.917 C 124.131 109.159,123.167 108.330,123.167 108.430 C 123.167 108.497,122.650 108.094,122.251 107.716 C 122.135 107.606,121.995 107.561,121.940 107.615 C 121.886 107.670,121.794 107.592,121.736 107.441 C 121.679 107.291,121.572 107.205,121.500 107.250 C 121.428 107.295,121.323 107.215,121.269 107.072 C 121.214 106.929,121.101 106.854,121.019 106.905 C 120.936 106.956,120.823 106.881,120.769 106.738 C 120.714 106.596,120.593 106.526,120.501 106.583 C 120.409 106.640,120.333 106.605,120.333 106.505 C 120.333 106.405,120.202 106.274,120.042 106.213 C 119.881 106.153,119.375 105.883,118.917 105.615 C 118.458 105.346,118.008 105.107,117.917 105.084 C 117.460 104.971,116.333 104.435,116.333 104.330 C 116.333 104.264,115.977 104.112,115.542 103.993 C 115.106 103.873,114.581 103.667,114.375 103.535 C 114.169 103.403,114.000 103.350,114.000 103.418 C 114.000 103.486,113.899 103.457,113.776 103.355 C 113.653 103.253,113.503 103.219,113.443 103.279 C 113.383 103.340,113.333 103.310,113.333 103.213 C 113.333 103.070,112.416 102.788,112.083 102.829 C 112.035 102.835,111.772 102.724,111.499 102.583 C 111.225 102.441,110.756 102.305,110.457 102.280 C 110.158 102.256,109.839 102.190,109.748 102.134 C 109.658 102.078,109.172 101.980,108.670 101.917 C 108.168 101.853,107.380 101.720,106.920 101.622 C 105.371 101.289,7.563 101.261,7.436 101.593 " stroke="none" fill="#44bcb4" fill-rule="evenodd"></path><path id="path2" d="M290.874 26.368 L 290.917 52.736 293.167 52.690 C 308.622 52.373,326.066 56.429,341.132 63.841 C 345.924 66.199,345.804 66.180,346.917 64.724 C 347.375 64.125,347.930 63.454,348.149 63.234 C 348.369 63.013,348.505 62.833,348.452 62.833 C 348.398 62.833,348.761 62.402,349.258 61.875 C 349.755 61.348,350.163 60.824,350.164 60.710 C 350.166 60.596,350.317 60.409,350.500 60.295 C 350.683 60.180,350.833 60.022,350.833 59.943 C 350.833 59.865,351.040 59.597,351.292 59.349 C 351.878 58.771,353.034 57.395,353.250 57.016 C 353.342 56.856,353.659 56.468,353.956 56.154 C 355.071 54.974,356.167 53.657,356.167 53.497 C 356.167 53.406,356.617 52.870,357.167 52.306 C 357.717 51.743,358.167 51.224,358.167 51.153 C 358.167 51.083,358.373 50.811,358.625 50.549 C 358.877 50.287,359.346 49.744,359.667 49.343 C 359.988 48.942,360.615 48.194,361.061 47.682 C 361.507 47.169,361.992 46.563,362.140 46.333 C 362.287 46.104,362.579 45.764,362.787 45.578 C 362.996 45.392,363.167 45.183,363.167 45.113 C 363.167 45.044,363.542 44.596,364.000 44.119 C 364.458 43.641,364.833 43.190,364.833 43.117 C 364.833 43.044,365.006 42.819,365.218 42.617 C 365.430 42.415,365.823 41.952,366.093 41.589 C 366.363 41.225,366.696 40.802,366.833 40.648 C 366.971 40.494,367.254 40.154,367.462 39.892 C 367.898 39.345,368.747 38.345,369.292 37.737 C 369.498 37.507,369.667 37.247,369.667 37.159 C 369.667 37.072,369.726 37.000,369.797 37.000 C 369.935 37.000,371.239 35.481,371.667 34.822 C 371.804 34.611,372.149 34.208,372.433 33.927 C 372.718 33.646,373.127 33.154,373.344 32.833 C 373.560 32.512,373.946 32.051,374.202 31.808 C 374.458 31.565,374.667 31.302,374.667 31.223 C 374.667 31.145,374.820 30.985,375.006 30.868 C 375.193 30.751,375.301 30.583,375.246 30.493 C 375.191 30.404,375.261 30.287,375.402 30.232 C 375.543 30.178,375.934 29.748,376.271 29.275 C 376.608 28.803,376.973 28.363,377.084 28.297 C 377.194 28.231,377.614 27.748,378.017 27.224 C 378.420 26.700,378.900 26.115,379.083 25.926 C 379.267 25.736,379.604 25.328,379.833 25.020 C 380.063 24.712,380.419 24.305,380.625 24.117 C 380.831 23.928,381.000 23.674,381.000 23.553 C 381.000 23.432,381.075 23.333,381.167 23.333 C 381.258 23.333,381.333 23.221,381.333 23.083 C 381.333 22.946,381.391 22.852,381.462 22.875 C 381.596 22.918,382.833 21.622,382.833 21.438 C 382.833 21.325,383.151 20.945,383.875 20.191 C 384.127 19.929,384.333 19.669,384.333 19.615 C 384.333 19.560,384.502 19.335,384.708 19.114 C 385.031 18.769,385.703 17.981,386.667 16.818 C 386.804 16.653,387.067 16.324,387.250 16.088 C 387.433 15.852,387.790 15.442,388.042 15.176 C 388.294 14.910,388.500 14.620,388.500 14.531 C 388.500 14.442,388.613 14.326,388.750 14.273 C 388.887 14.220,389.000 14.103,389.000 14.012 C 389.000 13.921,389.281 13.552,389.625 13.192 C 390.364 12.418,390.667 12.049,390.667 11.921 C 390.667 11.869,390.910 11.584,391.208 11.285 C 391.794 10.699,393.000 9.263,393.218 8.892 C 393.291 8.766,393.540 8.458,393.771 8.207 C 394.864 7.016,396.546 5.000,396.446 5.000 C 396.398 5.000,396.559 4.782,396.804 4.515 C 397.933 3.288,398.167 3.015,398.167 2.923 C 398.167 2.834,398.527 2.413,399.625 1.223 C 399.831 0.999,400.000 0.633,400.000 0.408 L 400.000 0.000 345.416 0.000 L 290.832 0.000 290.874 26.368 " stroke="none" fill="#eb448c" fill-rule="evenodd"></path><path id="path3" d="M60.750 0.322 C 52.130 1.711,44.320 4.432,36.083 8.915 C 28.546 13.018,19.993 20.593,14.323 28.187 C 11.063 32.553,7.500 38.591,7.500 39.749 L 7.500 40.167 56.043 40.167 C 108.187 40.167,106.728 40.189,110.083 39.339 C 116.411 37.737,122.302 34.312,126.725 29.665 C 128.683 27.607,128.739 27.838,125.316 23.917 C 114.488 11.513,100.499 3.685,83.417 0.471 C 80.606 -0.058,63.792 -0.168,60.750 0.322 M143.667 37.917 L 143.667 75.833 176.813 75.833 C 205.026 75.833,209.988 75.799,210.153 75.600 C 210.563 75.106,210.301 41.522,209.865 38.750 C 207.077 20.995,194.258 6.399,177.087 1.425 C 171.954 -0.061,172.800 -0.000,157.325 -0.000 L 143.667 0.000 143.667 37.917 " stroke="none" fill="#edb91d" fill-rule="evenodd"></path><path id="path4" d="M62.748 50.958 C 65.775 62.786,65.939 78.280,63.157 89.565 C 62.979 90.288,62.833 90.947,62.833 91.030 C 62.833 91.323,96.576 91.097,97.917 90.794 C 100.084 90.305,100.528 90.160,102.224 89.387 C 117.906 82.244,118.272 60.321,102.840 52.584 C 98.703 50.510,98.589 50.500,78.784 50.500 L 62.631 50.500 62.748 50.958 M345.652 66.155 C 345.341 66.223,344.155 67.533,341.415 70.833 C 337.343 75.738,328.892 85.900,313.500 104.402 C 308.229 110.738,301.158 119.239,297.786 123.294 C 294.414 127.349,291.470 130.788,291.244 130.936 L 290.833 131.205 290.833 136.269 C 290.833 139.722,290.889 141.333,291.010 141.333 C 291.107 141.333,291.140 141.408,291.083 141.500 C 291.015 141.610,294.304 141.667,300.823 141.667 C 310.473 141.667,310.667 141.660,310.667 141.342 C 310.667 141.162,312.510 138.800,314.796 136.050 C 317.068 133.318,320.724 128.914,322.921 126.263 C 327.554 120.674,331.982 115.336,340.003 105.667 C 343.159 101.862,347.980 96.050,350.717 92.750 C 359.863 81.721,362.667 78.357,362.940 78.083 C 363.160 77.864,363.171 77.774,362.998 77.614 C 362.850 77.478,362.817 77.475,362.891 77.608 C 363.044 77.881,362.559 78.022,362.347 77.766 C 362.249 77.649,362.225 77.493,362.293 77.420 C 362.361 77.347,362.304 77.325,362.167 77.370 C 362.028 77.415,361.471 77.101,360.917 76.666 C 359.309 75.402,356.671 73.454,355.500 72.667 C 353.879 71.578,353.165 70.972,353.281 70.784 C 353.338 70.691,353.305 70.664,353.207 70.725 C 352.956 70.880,352.500 70.674,352.500 70.404 C 352.500 70.261,352.398 70.216,352.223 70.284 C 352.047 70.351,351.986 70.324,352.057 70.210 C 352.118 70.111,352.121 69.909,352.064 69.760 C 351.938 69.430,351.333 69.072,351.333 69.327 C 351.333 69.422,351.446 69.500,351.583 69.500 C 351.721 69.500,351.833 69.612,351.833 69.750 C 351.833 69.887,351.754 70.000,351.657 70.000 C 351.560 70.000,351.527 69.925,351.583 69.833 C 351.640 69.742,351.569 69.667,351.427 69.667 C 351.284 69.667,351.167 69.549,351.167 69.405 C 351.167 69.227,351.069 69.175,350.857 69.243 C 350.540 69.343,350.027 68.917,350.226 68.718 C 350.285 68.659,350.333 68.699,350.333 68.806 C 350.333 68.912,350.418 69.000,350.520 69.000 C 350.650 69.000,350.643 68.923,350.500 68.750 C 350.386 68.612,350.185 68.500,350.053 68.500 C 349.921 68.500,349.860 68.425,349.917 68.333 C 349.973 68.242,349.865 68.167,349.677 68.167 C 349.488 68.167,349.333 68.100,349.333 68.018 C 349.333 67.936,349.217 67.824,349.075 67.770 C 348.917 67.709,348.859 67.739,348.925 67.848 C 348.986 67.945,348.882 67.929,348.695 67.812 C 348.508 67.695,348.392 67.540,348.437 67.467 C 348.483 67.393,348.445 67.333,348.353 67.333 C 348.261 67.333,348.140 67.409,348.083 67.500 C 347.958 67.702,347.333 67.411,347.333 67.151 C 347.333 67.057,347.408 67.027,347.500 67.083 C 347.592 67.140,347.667 67.115,347.667 67.028 C 347.667 66.940,347.554 66.826,347.417 66.773 C 347.279 66.720,347.167 66.758,347.167 66.857 C 347.167 66.956,347.017 66.860,346.833 66.643 C 346.643 66.419,346.524 66.358,346.556 66.500 C 346.587 66.637,346.580 66.693,346.542 66.624 C 346.503 66.555,346.404 66.540,346.321 66.591 C 346.238 66.642,346.212 66.575,346.263 66.442 C 346.384 66.128,346.188 66.036,345.652 66.155 M210.250 75.715 C 210.140 75.848,210.083 87.121,210.083 108.792 L 210.083 141.667 216.875 141.667 L 223.667 141.667 223.667 108.583 L 223.667 75.500 217.042 75.506 C 212.062 75.511,210.375 75.563,210.250 75.715 M370.833 84.964 C 370.833 85.047,370.994 85.258,371.191 85.433 C 371.546 85.748,371.547 85.747,371.357 85.384 C 371.144 84.979,370.833 84.730,370.833 84.964 M7.611 101.611 C 7.371 101.851,7.529 102.400,8.191 103.632 C 11.249 109.313,13.564 112.739,17.390 117.242 C 19.674 119.930,24.101 124.270,26.074 125.755 C 26.436 126.027,26.959 126.456,27.236 126.708 C 27.514 126.960,27.790 127.167,27.850 127.167 C 27.909 127.167,28.249 127.435,28.604 127.764 C 28.959 128.092,29.587 128.557,30.000 128.797 C 30.412 129.037,30.787 129.281,30.833 129.338 C 31.011 129.559,32.991 130.833,33.158 130.833 C 33.254 130.833,33.333 130.897,33.333 130.975 C 33.333 131.052,33.633 131.251,34.000 131.417 C 34.367 131.582,34.667 131.766,34.667 131.827 C 34.667 131.887,34.985 132.076,35.375 132.248 C 35.765 132.420,36.182 132.659,36.304 132.780 C 36.425 132.901,36.631 133.000,36.762 133.000 C 36.893 133.000,37.000 133.074,37.000 133.163 C 37.000 135.131,46.193 126.378,51.525 119.333 C 55.669 113.859,61.822 102.866,61.383 101.722 C 61.291 101.484,7.848 101.374,7.611 101.611 M391.449 114.415 C 391.602 114.734,391.756 114.966,391.792 114.930 C 391.868 114.854,391.362 113.833,391.248 113.833 C 391.206 113.833,391.297 114.095,391.449 114.415 " stroke="none" fill="#1ea2a9" fill-rule="evenodd"></path><path id="path5" d="M3.200 50.709 C 3.105 50.824,2.829 51.706,2.586 52.668 C 2.344 53.630,2.116 54.510,2.078 54.625 C 2.041 54.740,2.126 54.833,2.266 54.833 C 2.447 54.833,2.491 54.735,2.417 54.500 C 2.353 54.300,2.387 54.167,2.500 54.167 C 2.613 54.167,2.647 54.033,2.583 53.833 C 2.520 53.634,2.553 53.500,2.667 53.500 C 2.784 53.500,2.813 53.365,2.743 53.146 C 2.661 52.885,2.686 52.826,2.842 52.922 C 2.995 53.017,3.027 52.954,2.959 52.693 C 2.907 52.495,2.938 52.333,3.027 52.333 C 3.116 52.333,3.139 52.175,3.077 51.979 C 2.993 51.717,3.019 51.659,3.177 51.756 C 3.332 51.852,3.358 51.805,3.273 51.582 C 3.055 51.014,3.532 51.005,33.034 51.003 L 62.484 51.000 62.663 51.625 C 64.528 58.150,65.419 70.568,64.603 78.667 C 64.178 82.893,63.279 88.513,62.730 90.375 C 62.627 90.727,3.500 90.842,3.500 90.490 C 3.500 90.393,3.417 90.365,3.315 90.428 C 3.190 90.505,3.169 90.422,3.250 90.167 C 3.336 89.894,3.314 89.826,3.167 89.917 C 3.021 90.006,2.996 89.942,3.077 89.688 C 3.146 89.468,3.117 89.333,3.000 89.333 C 2.887 89.333,2.853 89.200,2.917 89.000 C 2.976 88.813,2.947 88.667,2.850 88.667 C 2.755 88.667,2.720 88.554,2.773 88.417 C 2.835 88.254,2.769 88.167,2.583 88.167 C 2.395 88.167,2.331 88.254,2.396 88.422 C 2.450 88.562,2.614 89.144,2.762 89.714 C 2.909 90.284,3.107 90.844,3.202 90.958 C 3.339 91.124,9.518 91.167,33.076 91.167 L 62.779 91.167 63.128 89.708 C 65.850 78.359,65.825 63.921,63.063 52.292 L 62.638 50.500 33.006 50.500 C 9.427 50.500,3.339 50.543,3.200 50.709 M1.988 55.208 C 1.981 55.231,1.944 55.418,1.906 55.623 C 1.867 55.829,1.648 56.926,1.418 58.061 C 0.914 60.551,0.887 60.970,1.255 60.602 C 1.421 60.436,1.473 60.200,1.404 59.924 C 1.337 59.658,1.367 59.500,1.485 59.500 C 1.602 59.500,1.634 59.343,1.568 59.083 C 1.500 58.810,1.534 58.667,1.667 58.667 C 1.798 58.667,1.834 58.524,1.767 58.260 C 1.711 58.037,1.746 57.804,1.844 57.743 C 1.942 57.683,1.978 57.515,1.922 57.371 C 1.867 57.228,1.918 57.042,2.036 56.959 C 2.204 56.840,2.206 56.790,2.043 56.724 C 1.892 56.662,1.882 56.553,2.009 56.316 C 2.104 56.139,2.140 55.925,2.088 55.841 C 2.037 55.758,2.071 55.643,2.164 55.585 C 2.382 55.450,2.384 55.167,2.167 55.167 C 2.075 55.167,1.994 55.185,1.988 55.208 M0.833 61.512 C 0.833 61.967,0.861 61.996,1.083 61.774 C 1.221 61.636,1.333 61.406,1.333 61.262 C 1.333 61.118,1.221 61.000,1.083 61.000 C 0.915 61.000,0.833 61.168,0.833 61.512 M0.773 62.282 C 0.567 62.488,0.669 63.000,0.917 63.000 C 1.054 63.000,1.167 62.854,1.167 62.677 C 1.167 62.329,0.947 62.109,0.773 62.282 M0.500 64.161 C 0.500 64.533,0.562 64.632,0.750 64.560 C 0.887 64.508,1.000 64.285,1.000 64.066 C 1.000 63.822,0.903 63.667,0.750 63.667 C 0.584 63.667,0.500 63.833,0.500 64.161 M0.434 65.431 C 0.203 66.033,0.315 67.042,0.583 66.774 C 0.721 66.636,0.833 66.260,0.833 65.938 C 0.833 65.306,0.597 65.006,0.434 65.431 M344.779 66.235 C 344.692 66.462,342.030 69.678,322.487 93.167 C 307.424 111.272,302.983 116.617,297.353 123.417 C 294.393 126.992,291.703 130.160,291.375 130.458 C 290.737 131.037,290.692 131.331,291.306 130.900 C 291.510 130.758,294.430 127.329,297.796 123.282 C 301.162 119.234,308.229 110.738,313.500 104.402 C 326.756 88.469,336.918 76.250,341.388 70.869 C 343.466 68.368,345.167 66.249,345.167 66.161 C 345.167 65.915,344.881 65.970,344.779 66.235 M0.273 68.462 C 0.139 69.274,0.137 72.478,0.271 73.146 C 0.515 74.364,0.667 73.479,0.667 70.843 C 0.667 68.154,0.495 67.117,0.273 68.462 M0.366 75.404 C 0.395 75.872,0.506 76.253,0.625 76.293 C 0.927 76.392,0.883 75.329,0.569 74.917 C 0.332 74.606,0.318 74.638,0.366 75.404 M209.797 108.792 C 209.828 130.170,209.901 141.652,210.006 141.472 C 210.232 141.085,210.143 75.964,209.917 75.889 C 209.806 75.852,209.766 86.873,209.797 108.792 M0.500 77.505 C 0.500 77.834,0.584 78.000,0.750 78.000 C 1.081 78.000,1.081 77.233,0.750 77.106 C 0.562 77.034,0.500 77.134,0.500 77.505 M0.694 79.023 C 0.725 79.240,0.825 79.398,0.917 79.375 C 1.163 79.313,1.119 78.790,0.861 78.704 C 0.709 78.653,0.656 78.753,0.694 79.023 M0.833 80.155 C 0.833 80.499,0.915 80.667,1.083 80.667 C 1.221 80.667,1.333 80.549,1.333 80.405 C 1.333 80.261,1.221 80.030,1.083 79.893 C 0.861 79.671,0.833 79.700,0.833 80.155 M1.004 81.196 C 1.009 81.695,1.795 85.684,1.912 85.801 C 2.120 86.009,2.194 85.650,1.993 85.408 C 1.808 85.185,1.811 85.116,2.011 84.990 C 2.203 84.868,2.205 84.838,2.024 84.836 C 1.866 84.834,1.829 84.707,1.902 84.417 C 1.966 84.162,1.935 84.000,1.823 84.000 C 1.707 84.000,1.680 83.819,1.750 83.500 C 1.824 83.162,1.795 83.000,1.660 83.000 C 1.539 83.000,1.497 82.861,1.554 82.645 C 1.609 82.436,1.539 82.182,1.384 82.027 C 1.210 81.853,1.186 81.744,1.311 81.702 C 1.572 81.615,1.547 81.357,1.250 81.060 C 1.028 80.837,1.000 80.853,1.004 81.196 M2.277 87.639 C 2.308 87.761,2.333 87.896,2.333 87.940 C 2.333 87.984,2.408 87.973,2.500 87.917 C 2.592 87.860,2.667 87.739,2.667 87.647 C 2.667 87.555,2.598 87.523,2.514 87.575 C 2.430 87.626,2.330 87.612,2.292 87.543 C 2.253 87.473,2.247 87.517,2.277 87.639 " stroke="none" fill="#244c5f" fill-rule="evenodd"></path><path id="path6" d="M290.833 52.841 C 290.833 52.902,293.065 52.997,295.792 53.051 C 311.816 53.371,326.942 57.072,341.258 64.177 C 343.666 65.372,345.102 65.992,345.424 65.978 L 345.917 65.956 345.417 65.846 C 345.142 65.786,343.154 64.863,341.000 63.795 C 327.609 57.155,314.243 53.692,298.667 52.826 C 295.295 52.639,290.833 52.647,290.833 52.841 " stroke="none" fill="#bc3e72" fill-rule="evenodd"></path><path id="path7" d="" stroke="none" fill="#7098d0" fill-rule="evenodd"></path><path id="path8" d="" stroke="none" fill="#7098b8" fill-rule="evenodd"></path></g></svg>