<svg id="svg" version="1.1" xmlns="http://www.w3.org/2000/svg" xmlns:xlink="http://www.w3.org/1999/xlink" width="400" height="150.33333333333334" viewBox="0, 0, 400,150.33333333333334"><g id="svgg"><path id="path0" d="M181.833 0.107 C 181.604 0.146,180.479 0.330,179.333 0.517 C 155.384 4.424,136.075 16.403,121.066 36.667 C 114.497 45.535,109.371 56.418,107.171 66.167 C 106.974 67.037,106.743 68.050,106.657 68.417 C 104.746 76.549,104.728 89.117,106.613 98.333 C 107.245 101.421,107.478 102.389,108.077 104.417 C 115.457 129.378,138.428 147.611,165.732 150.178 C 168.209 150.411,180.119 150.292,182.000 150.016 C 182.688 149.915,183.850 149.750,184.583 149.650 C 192.678 148.539,200.484 146.293,207.676 143.007 C 220.017 137.367,232.917 126.687,240.498 115.833 C 240.722 115.513,240.993 115.160,241.100 115.050 C 241.536 114.598,244.876 109.442,245.978 107.517 C 246.629 106.380,247.189 105.422,247.223 105.388 C 247.257 105.354,247.414 105.684,247.572 106.121 C 249.712 112.045,252.977 118.492,255.445 121.666 C 255.553 121.804,256.206 122.675,256.897 123.601 C 267.358 137.632,283.269 146.704,303.250 150.028 C 305.132 150.341,321.679 150.343,324.167 150.030 C 332.782 148.947,339.388 147.242,347.583 143.988 C 369.668 135.216,388.843 116.015,396.505 95.000 C 397.300 92.819,398.625 88.451,398.881 87.167 C 398.927 86.938,399.179 85.813,399.441 84.667 L 399.917 82.583 399.917 68.500 C 399.917 55.334,399.896 54.330,399.605 53.083 C 399.434 52.350,399.220 51.413,399.131 51.000 C 398.638 48.741,398.321 47.580,397.556 45.250 C 393.616 33.247,386.243 23.175,375.417 15.009 C 358.315 2.109,338.317 -1.672,313.333 3.271 C 290.580 7.773,273.482 18.488,260.177 36.583 C 259.772 37.133,259.243 37.846,259.000 38.167 C 255.201 43.187,251.122 50.856,248.407 58.083 L 247.530 60.417 216.057 60.507 C 182.869 60.602,183.989 60.574,182.460 61.354 C 180.648 62.278,178.920 65.350,173.381 77.500 C 169.029 87.045,168.614 88.535,169.715 90.672 C 170.866 92.905,170.097 92.829,191.559 92.831 C 207.573 92.833,209.857 92.864,209.775 93.078 C 209.653 93.397,207.341 96.617,206.242 98.000 C 193.344 114.220,168.139 115.717,155.743 100.998 C 149.334 93.389,146.859 82.041,149.328 71.583 C 149.415 71.217,149.608 70.392,149.758 69.750 C 152.227 59.186,159.560 49.906,170.333 43.708 C 180.995 37.574,191.716 37.173,202.352 42.509 C 205.521 44.099,207.244 45.479,210.345 48.909 C 214.013 52.967,213.231 52.890,223.417 50.196 C 224.425 49.929,226.600 49.358,228.250 48.926 C 231.335 48.120,232.373 47.845,235.250 47.076 C 238.411 46.232,240.597 45.661,244.833 44.575 C 255.128 41.936,255.027 42.117,250.783 33.833 C 242.000 16.692,226.138 4.757,206.667 0.639 L 204.083 0.093 193.167 0.065 C 187.162 0.050,182.063 0.069,181.833 0.107 M35.244 37.497 C 33.658 37.732,33.463 37.901,30.806 41.333 C 28.494 44.320,28.500 44.311,28.500 45.048 C 28.500 46.813,25.241 46.661,65.667 46.780 L 101.250 46.885 101.947 46.528 C 103.125 45.925,103.161 45.879,106.257 41.083 C 107.319 39.439,107.362 38.354,106.390 37.717 C 105.904 37.399,37.333 37.187,35.244 37.497 M334.862 39.564 C 345.920 41.917,355.193 50.284,358.160 60.583 C 360.645 69.213,360.230 76.171,356.670 85.551 C 355.593 88.387,352.778 93.085,350.667 95.568 C 340.798 107.174,326.241 113.363,313.762 111.257 C 299.454 108.844,289.345 98.938,286.966 85.000 C 286.678 83.309,286.684 77.137,286.976 75.500 C 290.554 55.424,304.468 41.954,324.500 39.171 C 326.645 38.873,332.694 39.102,334.862 39.564 M5.390 55.492 C 4.348 55.742,3.734 56.299,1.882 58.672 L 0.002 61.083 0.001 62.792 L 0.000 64.500 0.458 64.521 C 3.331 64.655,92.476 64.441,93.333 64.298 C 94.966 64.026,95.256 63.657,96.307 60.500 C 97.376 57.288,97.385 56.071,96.342 55.547 C 96.008 55.379,6.088 55.325,5.390 55.492 M51.650 73.335 C 49.948 73.623,49.646 73.941,47.683 77.499 C 45.953 80.636,45.825 81.184,46.633 81.992 L 47.100 82.459 57.842 82.575 C 76.113 82.773,91.169 82.646,91.712 82.290 C 92.489 81.781,92.687 81.133,92.941 78.264 C 93.280 74.443,93.008 73.683,91.177 73.335 C 90.122 73.135,52.834 73.135,51.650 73.335 " stroke="none" fill="#04acdc" fill-rule="evenodd"></path><path id="path1" d="" stroke="none" fill="#08acdc" fill-rule="evenodd"></path><path id="path2" d="" stroke="none" fill="#08acdc" fill-rule="evenodd"></path><path id="path3" d="" stroke="none" fill="#08acdc" fill-rule="evenodd"></path><path id="path4" d="" stroke="none" fill="#08acdc" fill-rule="evenodd"></path></g></svg>